<svg width="399" height="399" viewBox="0 0 399 399" fill="none" xmlns="http://www.w3.org/2000/svg">
<circle cx="199.5" cy="199.5" r="195.5" fill="#F3CA20" stroke="white" stroke-width="8"/>
<circle cx="199.5" cy="199.5" r="159" stroke="#272727" stroke-width="9"/>
<path d="M203.195 134.893C207.299 138.525 211.296 142.059 215.294 145.594C217.215 147.292 219.144 148.974 221.049 150.688C222.635 152.11 222.864 153.613 221.736 154.881C220.657 156.108 218.973 156.083 217.444 154.743C211.256 149.299 205.092 143.831 198.903 138.379C195.347 135.251 191.251 133.699 186.461 134.349C183.747 134.714 181.695 136.388 179.381 137.932C180.379 138.679 181.302 139.378 182.226 140.069C190.393 146.163 198.56 152.248 206.727 158.342C207.168 158.675 207.642 159 208.01 159.406C209.007 160.503 209.056 161.738 208.165 162.884C207.323 163.964 206.154 164.265 204.879 163.639C204.389 163.396 203.947 163.03 203.506 162.705C194.309 155.856 185.014 149.128 175.956 142.1C171.476 138.623 166.767 139.346 163.211 141.434C159.516 143.603 159.508 143.595 163.015 145.984C172.988 152.801 182.962 159.609 192.935 166.426C193.393 166.743 193.875 167.036 194.276 167.418C195.339 168.433 195.519 169.611 194.734 170.871C193.998 172.057 192.535 172.414 191.21 171.748C190.72 171.504 190.262 171.171 189.804 170.863C177.852 162.697 165.909 154.531 153.957 146.374C150.466 143.993 148.022 144.196 145.054 147.138C139.757 152.394 134.509 157.692 129.162 162.9C125.827 166.158 124.2 170.009 124.249 174.657C124.314 180.873 124.257 187.088 124.265 193.312C124.274 196.359 126.587 198.098 129.53 197.212C131.917 196.489 133.528 194.953 134.304 192.524C135.563 188.591 135.285 184.504 135.637 180.491C135.882 177.663 136.283 174.876 137.558 172.293C140.517 166.313 146.125 164.241 152.387 166.629C157.014 168.393 160.791 171.448 164.544 174.47C172.768 181.092 179.21 189.184 183.665 198.756C185.921 203.606 186.861 208.66 185.022 213.917C182.896 219.986 178.31 223.464 172.416 225.333C164.151 227.949 156.581 226.527 149.837 220.994C146.575 218.321 143.428 215.453 139.275 214.12C134.934 212.723 130.544 212.373 126.113 213.624C124.339 214.128 124.208 214.478 125.189 215.899C131.034 224.317 137.37 232.361 144.825 239.429C150.842 245.141 158.249 247.888 166.555 247.953C178.057 248.042 189.567 247.961 201.069 247.969C210.765 247.977 220.076 245.751 229.339 243.183C234.914 241.631 240.538 240.234 246.114 238.674C250.912 237.325 255.703 237.479 260.526 238.422C262.987 238.901 265.472 239.259 267.949 239.673C268.227 239.722 268.497 239.763 268.775 239.819C270.68 240.258 271.669 241.509 271.35 243.069C271.031 244.629 269.609 245.434 267.728 245.133C263.821 244.508 259.905 243.906 256.005 243.248C253.242 242.777 250.569 243.191 247.896 243.866C237.644 246.458 227.516 249.569 217.158 251.739C212.294 252.763 207.356 253.323 202.369 253.323C189.968 253.331 177.566 253.502 165.173 253.266C155.003 253.071 146.379 248.944 139.316 241.713C132.538 234.774 126.481 227.226 120.865 219.336C117.529 214.648 119.377 209.497 124.993 208.197C133.838 206.158 141.907 207.888 149.126 213.421C151.423 215.184 153.532 217.159 156.001 218.711C162.165 222.578 171.59 221.758 176.863 216.753C180.329 213.462 181.204 209.408 180.027 204.858C178.572 199.268 175.375 194.579 172.04 190.005C167.299 183.513 161.257 178.346 154.611 173.853C153.18 172.886 151.627 172.13 149.992 171.545C146.616 170.351 143.943 171.431 142.422 174.665C141.367 176.916 141.147 179.361 141 181.799C140.73 186.333 140.73 190.883 139.119 195.246C136.871 201.356 129.318 204.606 123.628 201.705C120.701 200.21 118.878 197.821 118.854 194.449C118.804 187.015 118.739 179.573 118.911 172.138C119.017 167.791 120.709 163.867 123.75 160.739C129.775 154.556 135.89 148.47 142.087 142.466C145.422 139.232 149.469 138.541 153.842 140.166C154.57 140.434 155.012 140.369 155.641 139.939C158.936 137.68 162.156 135.234 166.252 134.519C168.468 134.129 170.683 133.967 172.882 134.601C173.749 134.853 174.427 134.731 175.204 134.203C177.91 132.366 180.518 130.303 183.747 129.401C188.243 128.141 192.592 128.686 196.786 130.611C197.742 131.05 198.511 131.091 199.443 130.611C202.41 129.068 205.402 127.597 208.901 127.67C212.498 127.743 215.523 128.734 218.131 131.489C234.129 148.381 250.242 165.175 266.33 181.994C269.625 185.439 273.762 187.828 277.473 190.744C279.697 192.491 280.236 193.905 279.075 195.408C277.996 196.806 276.41 196.643 274.236 195.156C267.246 190.395 261.172 184.651 255.392 178.508C241.895 164.151 228.194 149.981 214.575 135.738C211.926 132.968 208.746 132.326 205.198 133.837C204.577 134.113 203.972 134.487 203.195 134.893Z" fill="#272727"/>
<path d="M254.019 220.677C254.387 210.829 258.515 203.931 266.927 199.731C269.118 198.634 271.105 199.406 271.407 201.388C271.612 202.672 271.187 203.753 269.96 204.273C260.641 208.205 258.286 217.175 260.109 226.373C260.248 227.079 260.436 227.778 260.535 228.485C260.739 229.988 259.84 231.321 258.45 231.621C257.036 231.93 255.695 231.134 255.278 229.606C254.894 228.168 254.567 226.698 254.371 225.219C254.15 223.521 254.101 221.806 254.019 220.677Z" fill="#272727"/>
<path d="M249.417 193.694C248.738 193.726 248.019 193.214 247.373 192.581C243.073 188.307 238.757 184.041 234.481 179.751C233.108 178.378 233.026 176.761 234.138 175.632C235.274 174.486 236.909 174.543 238.282 175.892C242.64 180.19 246.964 184.521 251.305 188.827C252.262 189.778 252.662 190.874 252.09 192.134C251.649 193.117 250.831 193.661 249.417 193.694Z" fill="#272727"/>
<path d="M228.096 172.016C226.911 172.008 226.224 171.553 225.619 170.952C224.033 169.392 222.439 167.84 220.886 166.256C219.464 164.801 219.365 163.168 220.567 162.014C221.704 160.917 223.306 161.039 224.704 162.388C226.38 164.013 228.039 165.654 229.666 167.32C230.508 168.181 230.81 169.221 230.304 170.367C229.846 171.439 228.987 171.967 228.096 172.016Z" fill="#272727"/>
</svg>
